 
 <svg
        xmlns="http://www.w3.org/2000/svg"
        enableBackground="new 0 0 64 64"
        version="1.0"
        viewBox="0 0 64 64"
        id="github"
        width="40" height="40"
      >
        <path
          d="M32,4.36c-15.57,0-28.24,12.68-28.24,28.26c0,12.46,7.99,23.3,19.88,26.98c0.1,0.03,0.2,0.04,0.3,0.04
	c0.04,0,0.09,0,0.13-0.01c0.3-0.04,1.04-0.21,1.57-0.91c0.24-0.33,0.4-0.72,0.44-1.13c0-0.04,0.01-0.08,0.01-0.13l-0.03-5.52
	c0-0.36-0.2-0.7-0.51-0.87c-0.32-0.18-0.71-0.17-1.01,0.02c-0.65,0.4-2.04,0.5-2.84,0.47c-3.87,0.15-4.83-2.72-4.89-2.9
	c-0.7-1.86-2.53-3.75-3.04-4.24c1.97,0.64,3.33,3.31,3.35,3.34c0.05,0.1,0.11,0.18,0.19,0.26c1.08,1.08,2.5,1.78,4,1.95
	c2.08,0.23,3.64-0.56,4.3-0.98c0.28-0.14,0.48-0.4,0.54-0.73c0.18-1.06,0.66-2.05,1.38-2.88c0.23-0.26,0.31-0.63,0.2-0.96
	s-0.38-0.59-0.71-0.67c-0.2-0.05-0.51-0.13-0.89-0.23c-2.81-0.77-6-1.64-7.91-3.36c-0.76-0.68-2.54-2.72-2.76-6.85v-2.14
	c0-2.42,0.89-4.75,2.51-6.58c0.26-0.3,0.33-0.72,0.16-1.08c-0.88-1.92-0.28-4.64,0.08-5.9c1.03,0.09,2.36,0.34,3.76,0.98
	c0.93,0.42,1.8,0.97,2.6,1.63c0.25,0.21,0.59,0.28,0.91,0.19c2.12-0.6,4.3-0.88,6.51-0.89c2.2,0.01,4.39,0.33,6.5,0.95
	c0.31,0.09,0.63,0.03,0.89-0.16c1.61-1.23,4.58-2.94,6.35-2.82c0.44,1.44,1,4.31,0.08,6.17c-0.18,0.36-0.12,0.79,0.14,1.09
	c1.53,1.79,2.37,4.06,2.37,6.41l0,2.09c-0.1,2.04-0.65,4.89-2.71,6.84c-2.01,1.91-5.22,2.76-7.79,3.44
	c-0.4,0.11-0.72,0.18-0.94,0.23c-0.34,0.08-0.62,0.33-0.73,0.66s-0.04,0.7,0.2,0.97c0.94,1.08,1.45,2.44,1.45,3.85l0,2.52
	c0,1.46,0.01,2.75,0,3.56l-0.01,2.42c0,0.06,0.01,0.13,0.02,0.19c0.06,0.31,0.18,0.58,0.37,0.8c0.61,0.75,1.74,0.91,3.34,0.45
	c7.29-2.08,12.11-8.41,12.31-8.68c2.39-3.18,6.41-9.74,6.41-17.91C60.24,17.03,47.57,4.36,32,4.36z M52.24,49.32
	c-0.05,0.06-4.64,6.06-11.26,7.96c-0.65,0.18-1.03,0.2-1.18,0.2l0-2.12c0.01-0.8,0.01-2.1,0-3.58l0-2.52c0-1.37-0.36-2.71-1.04-3.89
	c2.6-0.69,5.98-1.67,8.24-3.81c2.53-2.4,3.21-5.78,3.33-8.24v-2.14c0-2.61-0.87-5.15-2.46-7.22c1.18-3.27-0.37-7.48-0.44-7.67
	c-0.11-0.29-0.34-0.51-0.63-0.6c-2.76-0.9-6.87,1.77-8.23,2.74c-2.14-0.58-4.36-0.88-6.58-0.89c-2.23,0.02-4.42,0.27-6.56,0.83
	c-0.82-0.63-1.71-1.17-2.64-1.59c-2.08-0.95-4.02-1.18-5.29-1.2c-0.44-0.02-0.81,0.25-0.96,0.65c-0.07,0.18-1.57,4.27-0.49,7.52
	c-1.69,2.11-2.61,4.73-2.61,7.43l0,2.19c0.25,4.75,2.25,7.23,3.42,8.28c2.14,1.93,5.33,2.87,8.24,3.67
	c-0.39,0.67-0.67,1.38-0.85,2.13c-0.52,0.28-1.51,0.67-2.74,0.53c-1-0.11-1.95-0.56-2.7-1.27c-1.12-2.13-4.03-5.54-7.63-4.1
	c-0.3,0.12-0.53,0.38-0.6,0.7c-0.04,0.16-0.31,1.59,1.79,2.55c0.64,0.63,2.05,2.18,2.52,3.42c0.46,1.55,2.43,4.43,6.78,4.27
	c0.17,0.01,1.25,0.05,2.37-0.19l0.03,4.04c-0.01,0.04-0.03,0.08-0.05,0.11c-0.02,0.03-0.05,0.05-0.08,0.07
	c-10.9-3.5-18.2-13.51-18.2-24.99C5.76,18.14,17.53,6.36,32,6.36s26.24,11.78,26.24,26.26C58.24,40.2,54.48,46.34,52.24,49.32z"
        ></path>
      </svg>